<svg width="82" height="83" viewBox="0 0 82 83" fill="none" xmlns="http://www.w3.org/2000/svg">
<g clip-path="url(#clip0_1:31)">
<path d="M41.3715 0.761475C19.0808 0.761475 0.948334 19.1768 0.948334 41.8113C0.948334 64.4457 19.0808 82.861 41.3715 82.861C63.6622 82.861 81.7947 64.4457 81.7947 41.8113C81.7947 19.1768 63.6622 0.761475 41.3715 0.761475ZM41.3715 79.4403C20.9395 79.4403 4.31688 62.56 4.31688 41.8113C4.31688 21.0625 20.9395 4.18224 41.3715 4.18224C61.8036 4.18224 78.4262 21.0625 78.4262 41.8113C78.4262 62.56 61.8036 79.4403 41.3715 79.4403Z" fill="white"/>
<path d="M57.4419 40.3731L33.8618 24.9794C33.3453 24.6371 32.6775 24.6186 32.1446 24.9159C31.6017 25.2166 31.2662 25.7913 31.2662 26.4176V57.2049C31.2662 57.8313 31.6017 58.406 32.1446 58.7066C32.3946 58.8453 32.6742 58.9154 32.9505 58.9154C33.2663 58.9154 33.5855 58.8251 33.8618 58.6431L57.4419 43.2495C57.9223 42.9355 58.215 42.3925 58.215 41.8113C58.215 41.23 57.9223 40.6872 57.4419 40.3731ZM34.6347 54.0714V29.5512L53.4154 41.8113L34.6347 54.0714Z" fill="white"/>
</g>
<defs>
<clipPath id="clip0_1:31">
<rect width="80.8464" height="82.0996" fill="white" transform="translate(0.948334 0.761475)"/>
</clipPath>
</defs>
</svg>
